<svg width="29" height="27" viewBox="0 0 29 27" fill="none" xmlns="http://www.w3.org/2000/svg">
<g clip-path="url(#clip0_26_83)">
<path d="M28.4761 12.9191C18.5106 11.8929 17.7355 10.6432 21.2707 1.29146C21.5191 0.634257 20.609 0.181755 20.2309 0.771624C14.8538 9.20216 10.4922 11.8902 0.526691 12.9164C-0.172787 12.9892 -0.172787 14.0046 0.526691 14.0773C10.4922 15.1035 11.2673 16.3533 7.73213 25.705C7.48367 26.3622 8.3938 26.8147 8.77189 26.2249C14.149 17.7943 18.5079 15.1062 28.4761 14.08C29.1756 14.0073 29.1756 12.9919 28.4761 12.9191Z" fill="white"/>
</g>
<defs>
<clipPath id="clip0_26_83">
<rect width="29" height="26" fill="white" transform="matrix(-1 0 0 1 29 0.5)"/>
</clipPath>
</defs>
</svg>
